<?xml version="1.0" encoding="utf-8"?>
<!-- Generator: Adobe Illustrator 16.0.0, SVG Export Plug-In . SVG Version: 6.00 Build 0)  -->
<!DOCTYPE svg PUBLIC "-//W3C//DTD SVG 1.1//EN" "http://www.w3.org/Graphics/SVG/1.1/DTD/svg11.dtd">
<svg version="1.1" id="Layer_1" xmlns="http://www.w3.org/2000/svg" xmlns:xlink="http://www.w3.org/1999/xlink" x="0px" y="0px"
	 width="262px" height="262px" viewBox="0 0 262 262" enable-background="new 0 0 262 262" xml:space="preserve">
<rect fill="none" width="262" height="262"/>
<path fill="none" stroke="#000000" stroke-width="6" stroke-miterlimit="10" d="M31.636,137.863"/>
<g>
	<path fill="none" stroke="#000000" stroke-width="6" stroke-miterlimit="10" d="M31.636,139.376V89.897c0-1.65,0-4.35,0-6V35.278
		c0-1.65,1.35-3,3-3h192.5c1.65,0,3,1.35,3,3v49.69c0,1.65,0,4.35,0,6v48.408"/>
</g>
<g>
	<path fill="none" stroke="#000000" stroke-width="6" stroke-miterlimit="10" d="M157.282,202.534H25.727c-1.65,0-3-1.35-3-3
		v-26.995c0-1.65,0.378-4.296,0.84-5.88l7.559-25.916c0.462-1.584,2.19-2.88,3.84-2.88h192.068c1.65,0,3.378,1.296,3.84,2.88
		l7.559,25.916c0.462,1.584,0.84,4.23,0.84,5.88v26.995c0,1.65-1.35,3-3,3H104.718"/>
</g>
<g>
	<path fill="none" stroke="#000000" stroke-width="6" stroke-miterlimit="10" d="M65.159,108.995c0,1.65-1.35,3-3,3H50.737
		c-1.65,0-3-1.35-3-3V70.385c0-1.65,1.35-3,3-3h11.422c1.65,0,3,1.35,3,3V108.995z"/>
</g>
<circle fill="none" stroke="#000000" stroke-width="6" stroke-miterlimit="10" cx="130.885" cy="80.193" r="37.483"/>
<circle fill="none" stroke="#000000" stroke-width="6" stroke-miterlimit="10" cx="130.885" cy="80.193" r="16.498"/>
<circle cx="49.057" cy="48.116" r="4.223"/>
<circle cx="65.159" cy="48.116" r="3.431"/>
<g>
	<path fill="none" stroke="#000000" stroke-width="6" stroke-miterlimit="10" d="M215.881,59.37c0,1.65-1.35,3-3,3h-23.036
		c-1.65,0-3-1.35-3-3v-8.254c0-1.65,1.35-3,3-3h23.036c1.65,0,3,1.35,3,3V59.37z"/>
</g>
<g>
	<path fill="none" stroke="#000000" stroke-width="6" stroke-miterlimit="10" d="M170.744,32.278V21.552c0-1.65,1.35-3,3-3h30.427
		c1.65,0,3,1.35,3,3v10.726"/>
</g>
<g>
	
		<line fill="none" stroke="#000000" stroke-width="6" stroke-linecap="round" stroke-miterlimit="10" x1="45.89" y1="185.904" x2="215.881" y2="185.904"/>
</g>
<path fill="#FFFFFF" stroke="#000000" stroke-width="3" stroke-miterlimit="10" d="M221.688,243.448H40.083
	c0-29.211,24.285-57.543,24.285-57.543h133.037C197.404,185.904,221.688,214.237,221.688,243.448H40.083"/>
<path fill="#2EBBA5" stroke="#000000" stroke-width="3" stroke-miterlimit="10" d="M196.86,228.313H63.019
	c0-21.527,17.897-42.409,17.897-42.409h98.047C178.963,185.904,196.86,206.786,196.86,228.313H63.019"/>
<g>
	<g>
		<path fill="#FFFFFF" stroke="#000000" stroke-width="3" stroke-miterlimit="10" d="M137.223,228.299
			c-3.161-10.212-13.792-16.312-23.977-16.312c-10.184,0-20.811,6.102-23.973,16.312"/>
		<path fill="#FFFFFF" stroke="#000000" stroke-width="3" stroke-miterlimit="10" d="M125.134,200.296
			c-1.002-5.965-6.31-10.148-11.886-10.147c-5.575,0.001-10.885,4.183-11.888,10.148s4.302,11.691,11.885,11.691
			C120.831,211.987,126.137,206.262,125.134,200.296z"/>
	</g>
</g>
<line fill="#ED1C24" stroke="#000000" stroke-width="6" stroke-miterlimit="10" x1="22.727" y1="170.198" x2="239.273" y2="170.198"/>
<line fill="#ED1C24" stroke="#000000" stroke-width="3" stroke-miterlimit="10" x1="78.797" y1="228.313" x2="144.26" y2="228.313"/>
<line fill="none" stroke="#000000" stroke-width="3" stroke-linecap="round" stroke-miterlimit="10" x1="138.937" y1="199.457" x2="167.43" y2="199.457"/>
<line fill="none" stroke="#000000" stroke-width="3" stroke-linecap="round" stroke-miterlimit="10" x1="142.639" y1="207.108" x2="177.411" y2="207.108"/>
<line fill="none" stroke="#000000" stroke-width="3" stroke-linecap="round" stroke-miterlimit="10" x1="148.032" y1="214.676" x2="181.919" y2="214.676"/>
<text transform="matrix(1 0 0 1 754.2856 189.7622)" font-family="'Quicksand-Medium'" font-size="116.6155">Portfolioid</text>
</svg>
